/* XPM */
static char * sdlhana_xpm[] = {
"32 32 6 1",
" 	c None",
".	c #008000",
"+	c #000000",
"@	c #FF0000",
"#	c #FFFFFF",
"$	c #00FF00",
".+.+.+.+.+.+.+.+.+.+.+.+.+.+.+.+",
".+@@@@@@@@@@@@@@@@@@@@@@@@@@@@.+",
".+@@@@@@@++###++@@@@@@@@@@@@@@.+",
".+@@@@@###########+@@@@@@@@@@@.+",
".+@@+###############+@@@@@@@@@.+",
".+@@##################@@@@@@@@.+",
".+@###################+@@@@@@@.+",
".+#####################+@@@@@@.+",
".+#####################+@@@@@@.+",
".+#####################+@@@@@@.+",
".+#####################@@@@@@@.+",
".+@###################+@@@@@@@.+",
".+@@##################@@@@@@@@.+",
".+@@+###############+@@@@@@@@@.+",
".+@@@@+###########+@@@@@@@@@@@.+",
".+@@@@@@@++####+@@@@@@@@@@@@@@.+",
".+@@@@++++++++++++++++@@@@@@@@.+",
".+++++++++++++++++++++++++@@@@.+",
".++++++++++++++++++++++++++++@.+",
".+++++++++++++++++++++++++++++.+",
".+++++++++++++++++++++++++++++.+",
".++++++++++++$$$$+$$$$+++$++++.+",
".+++++++++++$+++++$+++$++$++++.+",
".+++++++++++$+++++$++++$+$++++.+",
".++++++++++++$$$++$++++$+$++++.+",
".+++++++++++++++$+$++++$+$++++.+",
".+++++++++++++++$+$+++$++$++++.+",
".+++++++++++$$$$++$$$$+++$$$$+.+",
".+++++++++++++++++++++++++++++.+",
".+++++++++++++++++++++++++++++.+",
".+.+.+.+.+.+.+.+.+.+.+.+.+.+.+.+",
".+.+.+.+.+.+.+.+.+.+.+.+.+.+.+.+"};
